<svg width="18" height="12" viewBox="0 0 18 12" fill="none" xmlns="http://www.w3.org/2000/svg">
<path d="M18 0.000270844H0.000610352V12H18V0.000270844Z" fill="#F0F0F0"/>
<path d="M10.1253 -3.8147e-06H7.87535V4.87481H0.000610352V7.12474H7.87535V11.9996H10.1253V7.12474H18V4.87481H10.1253V-3.8147e-06Z" fill="#D80027"/>
<path d="M13.8439 8.08658L17.9998 10.3954V8.08658H13.8439Z" fill="#050505"/>
<path d="M10.9566 8.08658L17.9999 11.9995V10.893L12.9483 8.08658H10.9566Z" fill="#050505"/>
<path d="M16.124 11.9995L10.9568 9.12856V11.9995H16.124Z" fill="#050505"/>
<path d="M10.9566 8.08669L17.9999 11.9996V10.8931L12.9483 8.08669H10.9566Z" fill="#F0F0F0"/>
<path d="M10.9566 8.08669L17.9999 11.9996V10.8931L12.9483 8.08669H10.9566Z" fill="#D80027"/>
<path d="M3.1768 8.08659L0.000854492 9.85102V8.08659H3.1768Z" fill="#050505"/>
<path d="M7.04445 8.58414V11.9995H0.897339L7.04445 8.58414Z" fill="#050505"/>
<path d="M5.05215 8.08669L0.000610352 10.8931V11.9996L7.04386 8.08669H5.05215Z" fill="#D80027"/>
<path d="M4.15671 3.91287L0.000854492 1.60402V3.91287H4.15671Z" fill="#050505"/>
<path d="M7.04411 3.9129L0.000854492 -3.8147e-06V1.10647L5.05239 3.9129H7.04411Z" fill="#050505"/>
<path d="M1.87726 -3.8147e-06L7.04442 2.8709V-3.8147e-06H1.87726Z" fill="#050505"/>
<path d="M7.04386 3.9129L0.000610352 -3.8147e-06V1.10647L5.05215 3.9129H7.04386Z" fill="#F0F0F0"/>
<path d="M7.04386 3.9129L0.000610352 -3.8147e-06V1.10647L5.05215 3.9129H7.04386Z" fill="#D80027"/>
<path d="M14.8239 3.91295L17.9998 2.14852V3.91295H14.8239Z" fill="#050505"/>
<path d="M10.9566 3.41535V-3.8147e-06H17.1037L10.9566 3.41535Z" fill="#050505"/>
<path d="M12.9483 3.9129L17.9999 1.10647V-3.8147e-06L10.9566 3.9129H12.9483Z" fill="#D80027"/>
</svg>
