<svg width="197" height="66" viewBox="0 0 197 66" fill="none" xmlns="http://www.w3.org/2000/svg">
<path d="M0 57.1649V8.031C0.00695237 6.96939 0.222983 5.91956 0.635757 4.94143C1.04853 3.9633 1.64996 3.07604 2.40571 2.3303C3.16146 1.58457 4.05673 0.994963 5.0404 0.595159C6.02406 0.195354 7.07686 -0.00682119 8.13868 0.000175585H57.9234C58.9852 -0.00682119 60.038 0.195354 61.0217 0.595159C62.0053 0.994963 62.9006 1.58457 63.6564 2.3303C64.4121 3.07604 65.0135 3.9633 65.4263 4.94143C65.8391 5.91956 66.0551 6.96939 66.0621 8.031V57.1649C66.0551 58.2265 65.8391 59.2763 65.4263 60.2544C65.0135 61.2325 64.4121 62.1197 63.6563 62.8653C62.9005 63.611 62.0053 64.2005 61.0216 64.6003C60.038 65 58.9852 65.202 57.9234 65.1949H8.13868C7.0769 65.202 6.02412 65 5.04046 64.6003C4.0568 64.2005 3.16153 63.611 2.40577 62.8653C1.65 62.1197 1.04856 61.2325 0.635773 60.2544C0.222989 59.2763 0.00695209 58.2265 0 57.1649Z" fill="#050505"/>
<path d="M9.65448 51.0191C9.66556 49.8222 10.1516 48.6788 11.0058 47.8401C11.86 47.0015 13.0124 46.5365 14.2095 46.5472C15.4068 46.5362 16.5594 47.0012 17.4137 47.8398C18.2681 48.6785 18.7544 49.8221 18.7655 51.0191C18.7544 52.2161 18.2681 53.3597 17.4137 54.1984C16.5594 55.037 15.4068 55.502 14.2095 55.4911C13.0124 55.5018 11.86 55.0368 11.0058 54.1981C10.1516 53.3595 9.66556 52.216 9.65448 51.0191ZM47.2406 14.1266C47.2517 12.9297 47.7378 11.7863 48.592 10.9477C49.4462 10.1091 50.5985 9.644 51.7956 9.65473C52.9929 9.64378 54.1455 10.1087 54.9999 10.9474C55.8543 11.786 56.3406 12.9296 56.3517 14.1266C56.3406 15.3237 55.8543 16.4674 54.9999 17.306C54.1455 18.1446 52.9929 18.6096 51.7956 18.5986C50.5984 18.6094 49.4458 18.1442 48.5916 17.3054C47.7373 16.4666 47.2515 15.3237 47.2406 14.1266Z" fill="white"/>
<path d="M53.5102 46.6927C53.2254 46.568 52.9843 46.3614 52.8175 46.0991C52.6507 45.8369 52.5659 45.5309 52.5738 45.2203V38.2533C52.5667 37.9433 52.652 37.6383 52.8187 37.3769C52.9855 37.1155 53.2261 36.9095 53.5102 36.7852C56.0674 35.7171 57.4561 32.4803 55.2578 29.419C55.1573 29.2797 55.0339 29.1583 54.8929 29.0601C51.7745 26.9025 48.477 28.2653 47.389 30.7732C47.2566 31.0556 47.0444 31.2931 46.7786 31.4564C46.5128 31.6197 46.205 31.7017 45.8932 31.6922H38.7552C38.4416 31.691 38.1351 31.5989 37.8729 31.4272C37.6106 31.2554 37.4037 31.0113 37.2773 30.7244C36.9019 29.9065 36.2995 29.2135 35.5418 28.7277C34.7841 28.2419 33.9029 27.9836 33.0028 27.9836C32.1027 27.9836 31.2215 28.2419 30.4638 28.7277C29.7061 29.2135 29.1038 29.9065 28.7283 30.7244C28.6019 31.0113 28.3951 31.2554 28.1328 31.4272C27.8705 31.5989 27.564 31.691 27.2505 31.6922H20.1399H20.0276C19.7197 31.6811 19.4213 31.5831 19.1668 31.4095C18.9123 31.236 18.712 30.994 18.5892 30.7115C18.1135 29.6683 17.268 28.8383 16.2162 28.3818C15.9329 28.2671 15.6883 28.0738 15.5111 27.8248C15.334 27.5758 15.2317 27.2814 15.2164 26.9762C15.2164 26.9394 15.2164 26.9025 15.2164 26.8657V19.9449C15.2164 19.9081 15.2164 19.8713 15.2164 19.8353C15.2306 19.5291 15.3324 19.2334 15.5096 18.9832C15.6868 18.733 15.932 18.5389 16.2162 18.4237C17.2681 17.9673 18.1136 17.1373 18.5892 16.094C18.7119 15.8114 18.9121 15.5694 19.1667 15.3958C19.4212 15.2223 19.7197 15.1243 20.0276 15.1133H20.1399H27.2505C27.559 15.1109 27.8615 15.1982 28.1213 15.3645C28.3811 15.5309 28.5869 15.7691 28.7137 16.0503C29.8103 18.5505 33.1061 19.9047 36.2125 17.7479C36.3521 17.6509 36.4743 17.531 36.574 17.3933C39.2598 13.6683 36.6083 9.65459 33.0015 9.65459C32.1006 9.65065 31.2178 9.90731 30.4594 10.3936C29.7011 10.8799 29.0996 11.5752 28.7274 12.3955C28.6012 12.6825 28.3944 12.9268 28.1321 13.0988C27.8698 13.2707 27.5633 13.3629 27.2496 13.3642H20.1124C19.8005 13.3736 19.4927 13.2915 19.2269 13.128C18.9611 12.9645 18.7489 12.7269 18.6166 12.4443C17.5286 9.93381 14.2312 8.57108 11.1128 10.7312C10.9716 10.8293 10.8482 10.9507 10.7478 11.0901C8.55037 14.1505 9.93823 17.3873 12.4963 18.4563C12.7804 18.5807 13.021 18.7866 13.1878 19.048C13.3545 19.3094 13.4397 19.6144 13.4327 19.9244V26.8905C13.4397 27.2005 13.3545 27.5055 13.1878 27.7669C13.021 28.0283 12.7804 28.2343 12.4963 28.3586C9.93909 29.4267 8.55037 32.6635 10.7487 35.7248C10.849 35.8643 10.9724 35.9857 11.1136 36.0837C14.232 38.2413 17.5295 36.8777 18.6175 34.3706C18.7498 34.0881 18.962 33.8506 19.2278 33.6873C19.4936 33.5239 19.8014 33.442 20.1133 33.4516H27.2513C27.5649 33.4528 27.8714 33.5449 28.1336 33.7166C28.3959 33.8884 28.6028 34.1325 28.7292 34.4194C29.1046 35.2373 29.707 35.9303 30.4647 36.4161C31.2224 36.9019 32.1036 37.1602 33.0037 37.1602C33.9038 37.1602 34.785 36.9019 35.5427 36.4161C36.3004 35.9303 36.9027 35.2373 37.2782 34.4194C37.4046 34.1325 37.6114 33.8884 37.8737 33.7166C38.136 33.5449 38.4425 33.4528 38.756 33.4516H45.8666H45.9789C46.2863 33.4619 46.5845 33.5591 46.8389 33.7319C47.0933 33.9047 47.2936 34.1461 47.4164 34.428C47.8924 35.4713 48.7381 36.3013 49.7903 36.7578C50.0745 36.8729 50.3197 37.067 50.4969 37.3172C50.6741 37.5674 50.7759 37.8631 50.7901 38.1693C50.7901 38.2062 50.7901 38.2421 50.7901 38.279V45.1972C50.7901 45.234 50.7901 45.2708 50.7901 45.3068C50.7759 45.613 50.6741 45.9087 50.4969 46.1589C50.3197 46.4091 50.0745 46.6032 49.7903 46.7183C48.7381 47.1747 47.8923 48.0047 47.4164 49.0481C47.2937 49.3307 47.0935 49.5727 46.839 49.7463C46.5844 49.9198 46.2859 50.0178 45.978 50.0288H38.7543C38.4458 50.0312 38.1433 49.9439 37.8835 49.7776C37.6237 49.6112 37.4179 49.3729 37.291 49.0918C36.1945 46.5916 32.8996 45.2374 29.7923 47.3933C29.6524 47.4902 29.5298 47.6101 29.4299 47.7479C26.7442 51.4729 29.3957 55.4866 33.0024 55.4866C33.9034 55.4906 34.7864 55.234 35.5449 54.7477C36.3034 54.2614 36.9051 53.5661 37.2773 52.7457C37.4037 52.4589 37.6106 52.2147 37.8729 52.043C38.1351 51.8712 38.4416 51.7791 38.7552 51.7779H45.8932C46.2051 51.7685 46.513 51.8506 46.7788 52.0141C47.0446 52.1776 47.2567 52.4152 47.389 52.6978C48.477 55.2074 51.7745 56.571 54.8929 54.4108C55.0339 54.313 55.1573 54.1919 55.2578 54.0528C57.4553 50.9924 56.0674 47.7556 53.5102 46.6867" fill="white"/>
<path d="M78.5395 46.0873C78.5395 43.4389 79.2848 42.7622 81.8644 43.4389C84.7108 44.1734 87.6374 44.552 90.577 44.5661C95.163 44.5661 96.825 43.7772 96.825 41.5237C96.825 39.8894 95.9083 38.9875 92.239 36.9027L84.9014 32.6775C81.0608 30.4796 79.1118 27.3241 79.1118 23.2102C79.1118 16.8993 83.1246 13.7439 92.4678 13.7439C94.8861 13.7128 97.2972 14.0163 99.6324 14.6458C102.384 15.3781 103.015 16.0539 103.015 18.5901V19.1537C103.015 21.8586 102.329 22.4214 99.6324 21.689C97.3024 21.0335 94.8875 20.7298 92.4678 20.788C88.5698 20.788 87.0226 21.4072 87.0226 23.4364C87.0226 24.7888 87.7079 25.5211 90.1752 26.9301L97.7999 31.325C102.615 34.0864 104.739 36.7348 104.739 41.5237C104.739 48.119 100.555 51.6093 90.4657 51.6093C87.5461 51.6503 84.6346 51.2903 81.813 50.5395C79.1186 49.8063 78.5455 49.1871 78.5455 46.6517L78.5395 46.0873Z" fill="#050505"/>
<path d="M174.462 62.3515L174.404 62.062C173.765 59.578 174.233 58.939 176.609 58.4183C180.036 57.6662 182.178 55.6415 182.936 52.4029C182.159 52.6008 181.357 52.6788 180.557 52.6342C175.739 52.6342 174.287 50.0894 172.953 44.5365L168.715 26.2007C168.193 23.6551 168.657 23.0196 171.269 23.0196H172.546C175.159 23.0196 175.855 23.656 176.493 26.2007L180.325 43.6689C180.789 45.7511 181.37 46.0979 183.053 46.0979C184.156 46.0979 184.736 45.5781 185.201 43.6689L189.032 26.2007C189.671 23.6551 190.367 23.0196 192.98 23.0196H194.256C196.868 23.0196 197.333 23.656 196.81 26.2007L190.889 51.9395C188.974 60.5005 184.563 64.0859 178.352 65.0118C177.853 65.0947 177.35 65.142 176.845 65.1532C175.351 65.1524 174.871 64.4766 174.462 62.3515ZM140.051 39.1138V34.5939C140.051 26.1143 144.571 21.8805 153.554 21.8805C162.016 21.8805 166.247 25.9487 166.247 34.0852C166.247 34.8758 166.189 35.6107 166.131 36.289C165.841 38.8312 165.087 39.3965 162.361 39.3965H147.64V40.2436C147.64 43.1815 149.9 44.5382 155.232 44.5382C157.59 44.504 159.939 44.2388 162.245 43.7468C164.738 43.238 165.318 43.8033 165.318 46.4594V47.0804C165.318 49.5644 164.796 50.1322 162.245 50.7532C159.93 51.2987 157.554 51.5453 155.175 51.4872C144.804 51.4872 140.054 47.7588 140.054 39.1138H140.051ZM147.643 32.5597V33.4076H159.06V32.5597C159.06 29.6783 157.147 28.2659 153.32 28.2659C149.556 28.265 147.643 29.6783 147.643 32.5597ZM134.278 51.489C131.664 51.489 130.662 50.9691 129.053 48.8338L120.986 38.1965C119.436 36.3831 118.535 34.1043 118.427 31.7211C118.54 29.3912 119.442 27.1689 120.986 25.4196L127.94 16.516C129.554 14.4346 130.554 13.9147 133.165 13.9147H135.557C138.172 13.9147 138.394 14.4346 136.782 16.516L128.159 27.7314C127.226 28.8208 126.406 30.0024 125.711 31.2577C125.647 31.4838 125.61 31.7166 125.6 31.9515C125.599 32.3429 125.715 32.7257 125.933 33.0505L128.161 35.9986L137.895 48.8328C139.509 50.9741 139.286 51.4881 136.672 51.4881L134.278 51.489ZM112.528 51.489C109.913 51.489 109.301 50.7378 109.301 48.1356V17.2637C109.301 14.6625 109.913 13.9104 112.528 13.9104H113.529C116.144 13.9104 116.756 14.6625 116.756 17.2637V48.1356C116.756 50.7378 116.144 51.489 113.529 51.489H112.528Z" fill="#050505"/>
<path d="M188.92 19.4037C188.072 19.4037 187.873 19.176 187.873 18.3871V10.1181C187.873 8.64661 188.523 8.01538 190.038 8.01538H192.997C195.653 8.01538 196.985 9.29417 196.985 11.8346C196.985 14.3751 195.65 15.6359 192.997 15.6359H190.292V18.3862C190.292 19.175 190.093 19.4029 189.245 19.4029L188.92 19.4037ZM190.291 10.7323V13.4474H192.996C194.133 13.4474 194.567 12.9395 194.567 11.8355C194.567 10.7314 194.133 10.208 192.996 10.208H190.831C190.759 10.1969 190.686 10.2026 190.616 10.2248C190.547 10.2469 190.483 10.2849 190.431 10.3357C190.379 10.3865 190.339 10.4488 190.315 10.5176C190.29 10.5865 190.283 10.6599 190.292 10.7323H190.291ZM184.197 19.4037C183.877 19.4395 183.553 19.3767 183.269 19.2237C182.985 19.0706 182.754 18.8346 182.608 18.5472L180.455 15.2924H178.849V18.3931C178.849 19.1819 178.654 19.4098 177.821 19.4098H177.503C176.673 19.4098 176.475 19.1819 176.475 18.3931V10.1241C176.475 8.65257 177.11 8.02134 178.593 8.02134H181.487C184.082 8.02134 185.389 9.22991 185.389 11.6659C185.389 13.558 184.595 14.7142 183.005 15.1168L185.318 18.5678C185.76 19.2162 185.689 19.4089 184.859 19.4089L184.197 19.4037ZM178.849 10.7323V13.0972H181.497C182.525 13.0972 183.032 12.6244 183.032 11.6608C183.032 10.68 182.609 10.2046 181.497 10.2046H179.378C179.306 10.1941 179.233 10.2006 179.164 10.2234C179.095 10.2462 179.033 10.2847 178.981 10.3359C178.93 10.3871 178.892 10.4497 178.869 10.5185C178.846 10.5873 178.838 10.6605 178.849 10.7323ZM167.445 19.4037C165.799 19.4037 165.094 18.7733 165.094 17.3018V10.119C165.094 8.64744 165.799 8.01622 167.445 8.01622H173.069C173.952 8.01622 174.206 8.24406 174.206 9.03293V9.1905C174.206 10.0136 173.949 10.2064 173.069 10.2064H168.308C167.916 10.2064 167.72 10.3817 167.719 10.7323V12.4838H172.286C173.167 12.4838 173.422 12.6766 173.422 13.5005V13.6582C173.422 14.4471 173.165 14.674 172.286 14.674H167.719V16.6886C167.719 17.0392 167.915 17.2145 168.308 17.2145H173.069C173.952 17.2145 174.206 17.4071 174.206 18.2303V18.3879C174.206 19.1768 173.949 19.4047 173.069 19.4047L167.445 19.4037Z" fill="#050505"/>
</svg>
