<svg width="48" height="48" viewBox="0 0 48 48" fill="none" xmlns="http://www.w3.org/2000/svg">
<path d="M16.5 8.73633C18.8588 8.73633 21.1611 9.46211 23.0938 10.8145C25.026 12.1667 26.4956 14.0803 27.3037 16.2959C28.1118 18.5119 28.2196 20.9232 27.6113 23.2021C27.003 25.481 25.7082 27.5177 23.9033 29.0361L23.2959 29.5479L24.0186 29.875C26.9919 31.2205 29.5509 33.3376 31.4287 36.0068L31.4355 36.0166L31.4434 36.0264C31.5892 36.2132 31.6954 36.4281 31.7559 36.6572C31.8012 36.8291 31.8206 37.0068 31.8125 37.1836L31.7949 37.3604C31.7688 37.5363 31.7159 37.7068 31.6387 37.8662L31.5537 38.0215C31.4293 38.2233 31.2651 38.3977 31.0713 38.5342C30.9259 38.6365 30.7663 38.7165 30.5977 38.7705L30.4258 38.8154C30.1939 38.8644 29.9541 38.8666 29.7217 38.8203C29.4893 38.774 29.2686 38.68 29.0732 38.5459C28.878 38.4118 28.7116 38.2393 28.585 38.0391L28.5791 38.0293L28.5723 38.0195L28.3115 37.6602C27.0727 36.0039 25.4991 34.6269 23.6934 33.6182L23.3027 33.4072C21.2016 32.3151 18.868 31.7451 16.5 31.7451C14.132 31.7451 11.7984 32.3151 9.69727 33.4072C7.72749 34.4311 6.01588 35.8855 4.68848 37.6602L4.42871 38.0195L4.42773 38.0205C4.30779 38.1928 4.15755 38.3419 3.98535 38.46L3.80566 38.5674C3.61931 38.6644 3.41743 38.7264 3.20996 38.751L3.00195 38.7627H2.99805C2.68414 38.7636 2.37683 38.6786 2.10938 38.5176L1.99707 38.4434L1.99512 38.4424L1.8584 38.335C1.55464 38.0719 1.34865 37.7109 1.2793 37.3115C1.20008 36.855 1.30599 36.386 1.57227 36.0068L1.57129 36.0059C3.44908 33.3369 6.00835 31.2204 8.98145 29.875L9.7041 29.5479L9.09668 29.0361C7.29184 27.5177 5.99698 25.481 5.38867 23.2021C4.8184 21.0656 4.87729 18.813 5.55273 16.7139L5.69629 16.2959C6.45392 14.2186 7.79312 12.4068 9.5498 11.0742L9.90723 10.8145C11.8398 9.46213 14.1412 8.73635 16.5 8.73633ZM28.5381 8.7002L28.666 9.18359L28.6748 9.18164C29.5586 8.93004 30.4693 8.78737 31.3867 8.75684L31.7803 8.75H31.7832C33.9957 8.74365 36.1597 9.37687 38.0166 10.5684L38.3838 10.8145C40.1988 12.0803 41.6068 13.8416 42.4424 15.8838L42.6016 16.2959C43.3601 18.3745 43.5008 20.6248 43.0117 22.7764L42.9053 23.2051C42.294 25.4848 40.9954 27.5212 39.1855 29.0361L38.5752 29.5469L39.2998 29.875C42.0872 31.1364 44.5104 33.0759 46.3496 35.5127L46.71 36.0068L46.7119 36.0098C46.8454 36.1964 46.9402 36.4081 46.9912 36.6318C47.0295 36.7996 47.0427 36.9716 47.0303 37.1426L47.0098 37.3135C46.9705 37.5394 46.8861 37.755 46.7627 37.9482C46.67 38.0934 46.5565 38.2237 46.4258 38.335L46.29 38.4395L46.2842 38.4434C45.9922 38.6521 45.6421 38.7628 45.2832 38.7617C45.073 38.7604 44.8655 38.7223 44.6699 38.6484L44.4775 38.5635C44.2908 38.4662 44.1239 38.336 43.9834 38.1807L43.8516 38.0176C42.4882 36.0836 40.681 34.5046 38.5811 33.4141C36.612 32.3916 34.4394 31.8267 32.2256 31.7578L31.7822 31.75H31.7812C31.3752 31.75 30.9833 31.6096 30.6719 31.3545L30.5439 31.2383C30.2158 30.9101 30.0312 30.4641 30.0312 30C30.0313 29.5941 30.1727 29.2029 30.4277 28.8916L30.5439 28.7627C30.8721 28.4346 31.3172 28.25 31.7812 28.25C33.7703 28.25 35.6829 27.5094 37.1504 26.1807L37.4385 25.9072C38.9387 24.407 39.7812 22.3717 39.7812 20.25C39.7811 18.261 39.0406 16.3483 37.7119 14.8809L37.4385 14.5938C35.9382 13.0935 33.903 12.25 31.7812 12.25C31.1414 12.2489 30.5042 12.3267 29.8838 12.4805L29.6191 12.5508L29.6133 12.5527C29.4467 12.6024 29.2738 12.6263 29.1006 12.625L28.9268 12.6152C28.7535 12.5967 28.5844 12.5527 28.4248 12.4844L28.2695 12.4082C28.1171 12.3243 27.9782 12.2182 27.8574 12.0938L27.7422 11.9639C27.5979 11.7821 27.4916 11.573 27.4287 11.3496C27.3815 11.182 27.3593 11.0084 27.3633 10.835L27.376 10.6621C27.3972 10.4892 27.4439 10.3206 27.5146 10.1621L27.5938 10.0078C27.7088 9.80628 27.8629 9.62972 28.0469 9.48828C28.2308 9.34692 28.4408 9.24299 28.665 9.18359L28.5381 8.7002ZM18.0605 12.4043C16.5088 12.0957 14.9002 12.2539 13.4385 12.8594C12.0681 13.427 10.8845 14.3637 10.0176 15.5625L9.84863 15.8057C8.96966 17.1211 8.50008 18.6679 8.5 20.25C8.5 22.3716 9.34264 24.407 10.8428 25.9072C12.343 27.4075 14.3783 28.25 16.5 28.25C17.9833 28.25 19.4356 27.8383 20.6953 27.0625L20.9443 26.9023C22.2599 26.0233 23.2861 24.7733 23.8916 23.3115C24.4591 21.9412 24.6331 20.442 24.3984 18.9814L24.3467 18.6895C24.0572 17.2346 23.3691 15.8908 22.3623 14.8066L22.1572 14.5938C21.1084 13.545 19.7898 12.81 18.3506 12.4678L18.0605 12.4043Z" fill="#050505" stroke="#050505"/>
</svg>
