<svg width="65" height="56" viewBox="0 0 65 56" fill="none" xmlns="http://www.w3.org/2000/svg">
<path d="M65 38C65 47.9411 56.9411 56 47 56L20 56C17.2386 56 15 53.7614 15 51L15 17C15 11.4772 19.4772 7 25 7L60 7C62.7614 7 65 9.23858 65 12L65 38Z" fill="#AED0EE"/>
<path d="M28.3126 23.6441C28.0718 23.6441 27.8483 23.5779 27.6497 23.4715V23.4743C27.6497 23.8531 27.5024 24.2089 27.2352 24.4754C26.9681 24.7425 26.6126 24.8898 26.2342 24.8898C25.9899 24.8898 25.7634 24.8219 25.5627 24.7126C25.5424 25.0592 25.4039 25.3831 25.1568 25.6305C24.8896 25.8977 24.5341 26.0449 24.1555 26.0449C23.4032 26.0449 22.7923 25.4536 22.7482 24.7124C22.5155 24.8382 22.2523 24.9041 21.9809 24.8867C21.2408 24.8382 20.6613 24.1988 20.6613 23.4307V17.064L19.9363 18.32C19.6602 18.8004 19.1433 19.0986 18.5868 19.0986C18.3156 19.0986 18.0478 19.0275 17.8105 18.8916C17.5151 18.7203 17.3038 18.4453 17.2159 18.1164C17.1275 17.7873 17.1732 17.4431 17.344 17.1481C17.3443 17.1481 19.716 13.0409 19.8607 12.7886C19.8779 12.7507 19.9269 12.6406 19.9686 12.5469C20.0084 12.4573 20.0426 12.3655 20.0753 12.2731C20.7906 10.2538 22.5616 8.99949 24.6976 8.99949C27.4712 8.99949 29.7278 11.4464 29.7278 14.4541L29.728 22.2284C29.728 22.6068 29.581 22.9623 29.3141 23.2298C29.0469 23.4969 28.6914 23.6442 28.3126 23.6442L28.3126 23.6441ZM24.6976 9.75163C22.8623 9.75163 21.3994 10.7883 20.7843 12.5246C20.7449 12.6349 20.704 12.7452 20.6561 12.8526C20.5174 13.1638 20.5174 13.1638 20.4783 13.2086L20.4731 13.2041C20.2794 13.5695 19.7041 14.5659 17.9953 17.5245C17.9251 17.6458 17.9065 17.7867 17.9423 17.9215C17.9786 18.0563 18.0655 18.1698 18.1859 18.2393C18.5595 18.4539 19.0713 18.3154 19.2842 17.9443L20.7117 15.4729C20.797 15.3257 20.9695 15.2533 21.1349 15.2981C21.2993 15.3421 21.4136 15.4913 21.4136 15.6614V23.4309C21.4136 23.7975 21.6902 24.1139 22.0302 24.1363C22.2262 24.1466 22.409 24.0809 22.5464 23.9438C22.6712 23.8189 22.74 23.6526 22.74 23.4747V18.3933C22.74 18.1855 22.9085 18.0171 23.1163 18.0171C23.3241 18.0171 23.4925 18.1853 23.4925 18.3933L23.4923 24.6297C23.4923 24.9954 23.7898 25.2929 24.1555 25.2929C24.3331 25.2929 24.4999 25.2241 24.625 25.0992C24.7499 24.9741 24.8187 24.8073 24.8187 24.6297V18.3933C24.8187 18.1855 24.9869 18.0171 25.1949 18.0171C25.4027 18.0171 25.5712 18.1853 25.5712 18.3933L25.571 23.4163V23.4747C25.571 23.8401 25.8685 24.1377 26.2344 24.1377C26.4118 24.1377 26.5781 24.0686 26.704 23.9433C26.8288 23.8187 26.8976 23.6523 26.8976 23.4744V18.3931C26.8976 18.1853 27.0658 18.0168 27.2739 18.0168C27.4817 18.0168 27.6501 18.185 27.6501 18.3931L27.6496 22.2286C27.6496 22.5945 27.9472 22.8921 28.3126 22.8921C28.4905 22.8921 28.6568 22.823 28.7817 22.6984C28.907 22.5731 28.9756 22.4063 28.9756 22.2286L28.9758 14.4543C28.9758 11.8615 27.0566 9.75171 24.6976 9.75171L24.6976 9.75163Z" fill="#050505"/>
<path d="M13.5297 29.048L18.9894 25.7727C19.6477 25.3774 20.4947 25.5454 20.9169 26.1553C21.0709 26.3775 21.1496 26.6364 21.1619 26.9001C21.3654 26.7938 21.5869 26.7361 21.8124 26.7361C21.9278 26.7361 22.0437 26.7505 22.1582 26.779C22.525 26.8706 22.8341 27.0999 23.0285 27.424C23.2231 27.7487 23.2799 28.1291 23.1883 28.4955C23.1037 28.8346 22.8975 29.1199 22.6108 29.3157C22.8113 29.4339 22.9842 29.5953 23.1072 29.8008C23.3018 30.1254 23.3586 30.5057 23.2672 30.8725C23.1755 31.2389 22.9463 31.548 22.6217 31.7429L22.6198 31.744C22.8167 31.8621 22.9866 32.0218 23.1082 32.2242C23.303 32.5488 23.3598 32.9293 23.2681 33.2961C23.1763 33.6627 22.947 33.9718 22.6228 34.1664L15.9564 38.1657C14.7122 38.9119 13.2739 39.1694 11.907 38.8902C10.5278 38.6084 9.38558 37.8157 8.69107 36.6579C7.59199 34.8261 7.7567 32.6619 9.1201 31.0101C9.18254 30.9347 9.24402 30.8579 9.29986 30.7783C9.359 30.6942 9.42803 30.5952 9.45159 30.5613C9.59271 30.3092 11.8955 26.1603 11.8952 26.1608C12.1278 25.7412 12.5636 25.5037 13.0131 25.5039C13.2228 25.5039 13.4356 25.5555 13.6318 25.6644C13.8688 25.7968 14.0679 25.9898 14.2072 26.2223C14.4934 26.6994 14.5035 27.2964 14.234 27.7796L13.5297 29.048ZM13.5625 26.6091C13.4894 26.4873 13.3891 26.3902 13.2663 26.3214C13.0126 26.181 12.6931 26.2724 12.5534 26.5252C10.9057 29.4937 10.344 30.5054 10.1272 30.8654L10.1321 30.8666C10.114 30.9269 10.114 30.9269 9.91563 31.2103C9.84825 31.3062 9.77498 31.3983 9.7003 31.489C8.52793 32.9094 8.3918 34.6969 9.33582 36.2709C9.92058 37.2458 10.887 37.9142 12.0572 38.1531C13.2401 38.3937 14.4869 38.1699 15.5691 37.5206L22.2361 33.5211C22.3883 33.4299 22.4957 33.285 22.5386 33.1133C22.5814 32.9417 22.5548 32.7634 22.4634 32.6112C22.2754 32.2979 21.8671 32.1949 21.5538 32.3836L18.2648 34.3568C18.0867 34.4637 17.8554 34.4062 17.7486 34.2279C17.6417 34.0498 17.6994 33.8187 17.8775 33.7117L21.1667 31.7386L22.2349 31.0977C22.3871 31.0063 22.4948 30.8614 22.5376 30.6901C22.5805 30.5184 22.5539 30.3398 22.4625 30.1878C22.2742 29.8743 21.8659 29.7723 21.5528 29.9603L17.1955 32.5742C17.0169 32.6814 16.7862 32.6235 16.6793 32.4454C16.5723 32.2673 16.6303 32.0361 16.8081 31.9292L22.156 28.7211C22.3082 28.6296 22.4156 28.485 22.4585 28.3132C22.5014 28.1417 22.4747 27.9634 22.3836 27.8112C22.2924 27.6592 22.1475 27.5518 21.9757 27.5089C21.803 27.466 21.6254 27.4927 21.4737 27.5836L20.4837 28.1775C20.4835 28.1775 20.4835 28.1778 20.4832 28.1778H20.483L16.1259 30.7917C15.9473 30.8992 15.7164 30.8412 15.6097 30.6629C15.5027 30.4848 15.5607 30.2536 15.7385 30.1467L20.0959 27.5327C20.2481 27.4413 20.3558 27.2964 20.3987 27.1251C20.4458 26.9371 20.41 26.7449 20.2983 26.5837C20.1046 26.3036 19.6905 26.2291 19.3764 26.4179L12.7142 30.4146C12.5684 30.5017 12.3816 30.4805 12.2593 30.3625C12.1368 30.2442 12.1092 30.0583 12.1917 29.9097L13.577 27.4137C13.716 27.1642 13.7106 26.8561 13.5624 26.6092L13.5625 26.6091Z" fill="#050505"/>
<path d="M39.6183 36.6581C38.924 37.8161 37.7821 38.6086 36.4027 38.8904C35.0355 39.1691 33.5977 38.9121 32.3532 38.1659L25.6862 34.1665C25.3618 33.9719 25.1323 33.6627 25.0404 33.2957C24.9493 32.9293 25.0063 32.5488 25.2006 32.2246C25.322 32.022 25.4921 31.8623 25.6893 31.7442L25.6874 31.7431C25.363 31.5485 25.1335 31.2393 25.0421 30.8727C24.9502 30.5062 25.0072 30.1254 25.2018 29.8008C25.3272 29.5923 25.4989 29.4293 25.6949 29.3136C25.4103 29.1178 25.2054 28.8334 25.121 28.496C25.0291 28.1292 25.0862 27.7487 25.2808 27.4245C25.4751 27.1001 25.7845 26.8709 26.1511 26.7792C26.2656 26.7505 26.3817 26.7363 26.4967 26.7363C26.7224 26.7366 26.9439 26.7938 27.1474 26.9003C27.1599 26.6367 27.2384 26.3778 27.3924 26.1556C27.8149 25.5461 28.6611 25.3774 29.3203 25.773L34.7799 29.0478L34.0762 27.7802C33.8062 27.2963 33.8161 26.6993 34.1023 26.222C34.2418 25.9897 34.4411 25.7967 34.6793 25.6632C34.8751 25.5548 35.0871 25.5034 35.2963 25.5034C35.7456 25.5037 36.1819 25.7407 36.4142 26.1603C37.2237 27.6189 38.7513 30.3697 38.8587 30.5618C38.8816 30.595 38.9506 30.6939 39.0098 30.778C39.0661 30.8579 39.1268 30.9342 39.1898 31.0101C40.5529 32.6626 40.7174 34.8265 39.6183 36.6581L39.6183 36.6581ZM38.6093 31.4896C38.5344 31.3989 38.4609 31.3063 38.394 31.2109C38.1904 30.922 38.1852 30.9145 38.1699 30.8389C37.932 30.4452 37.3515 29.4001 35.7558 26.5253C35.6158 26.2729 35.2978 26.1808 35.0445 26.3208C34.9199 26.3905 34.8197 26.4878 34.7467 26.6096C34.5987 26.8563 34.5931 27.1645 34.7328 27.4147L36.1177 29.9099C36.2003 30.0588 36.1728 30.2444 36.0505 30.3627C35.9285 30.4812 35.7419 30.5019 35.5953 30.4148L28.9331 26.4181C28.6191 26.2298 28.2052 26.3036 28.011 26.5839C27.8993 26.7451 27.8638 26.9373 27.9104 27.1251C27.9533 27.2966 28.061 27.4413 28.2134 27.5327C28.2139 27.5329 28.2141 27.5334 28.2146 27.5336L32.5706 30.1469C32.7487 30.2538 32.8064 30.4847 32.6994 30.6631C32.5925 30.8409 32.3618 30.8991 32.1832 30.7919L26.8354 27.5838C26.6837 27.4929 26.5051 27.466 26.3336 27.5091C26.1616 27.552 26.0169 27.6595 25.9258 27.8119C25.8343 27.9638 25.808 28.1422 25.8504 28.3137C25.8932 28.4852 26.0009 28.6301 26.1531 28.7215L27.1938 29.3456L31.5007 31.9297C31.6788 32.0367 31.7365 32.2675 31.6296 32.4459C31.5226 32.6238 31.292 32.6817 31.1134 32.5748L26.7565 29.9608C26.4431 29.7723 26.0351 29.8746 25.8466 30.1884C25.7552 30.3406 25.7288 30.5189 25.7712 30.6904C25.8141 30.862 25.9218 31.0066 26.0742 31.0983L27.1424 31.7391L30.4311 33.7122C30.6092 33.8192 30.6669 34.0501 30.56 34.2284C30.453 34.4063 30.2223 34.4647 30.0438 34.3573L26.7551 32.3841C26.6033 32.2932 26.4255 32.2663 26.253 32.3095C26.0815 32.3523 25.9364 32.4598 25.8452 32.6117C25.754 32.7639 25.7274 32.9425 25.7698 33.1138C25.8127 33.2853 25.9204 33.43 26.0728 33.5216L32.7398 37.5211C33.8217 38.1702 35.0694 38.3949 36.2516 38.1537C37.4216 37.9148 38.388 37.2464 38.9728 36.2715C39.9178 34.6972 39.7818 32.9095 38.6097 31.4895L38.6093 31.4896Z" fill="#050505"/>
</svg>
