<svg width="115" height="40" viewBox="0 0 115 40" fill="none" xmlns="http://www.w3.org/2000/svg">
<path d="M0 34.3411V5.65907C0.00405763 5.03936 0.13014 4.42652 0.371049 3.85553C0.611957 3.28455 0.962974 2.76661 1.40405 2.33128C1.84514 1.89596 2.36764 1.55178 2.94174 1.31839C3.51584 1.085 4.13029 0.966984 4.75 0.971069H33.806C34.4257 0.966984 35.0402 1.085 35.6143 1.31839C36.1884 1.55178 36.7109 1.89596 37.152 2.33128C37.5931 2.76661 37.9441 3.28455 38.185 3.85553C38.4259 4.42652 38.552 5.03936 38.556 5.65907V34.3411C38.552 34.9608 38.4259 35.5736 38.185 36.1446C37.9441 36.7155 37.593 37.2334 37.1519 37.6687C36.7109 38.104 36.1883 38.4481 35.6142 38.6815C35.0401 38.9148 34.4257 39.0327 33.806 39.0286H4.75C4.13032 39.0327 3.51588 38.9148 2.94178 38.6815C2.36768 38.4481 1.84517 38.104 1.40409 37.6687C0.962997 37.2334 0.611973 36.7155 0.371058 36.1446C0.130144 35.5736 0.00405747 34.9608 0 34.3411Z" fill="#050505"/>
<path d="M5.64992 30.768C5.65639 30.0693 5.94007 29.4018 6.43861 28.9123C6.93716 28.4227 7.60968 28.1513 8.30837 28.1575C9.00714 28.1511 9.67983 28.4225 10.1785 28.9121C10.6771 29.4017 10.961 30.0692 10.9674 30.768C10.961 31.4668 10.6771 32.1343 10.1785 32.6239C9.67983 33.1134 9.00714 33.3849 8.30837 33.3785C7.60968 33.3848 6.93716 33.1133 6.43861 32.6238C5.94007 32.1342 5.65639 31.4667 5.64992 30.768ZM27.5865 9.23196C27.5929 8.53328 27.8766 7.86579 28.3752 7.37625C28.8737 6.88671 29.5462 6.61523 30.2449 6.62149C30.9437 6.61509 31.6164 6.88651 32.115 7.37607C32.6137 7.86562 32.8975 8.5332 32.904 9.23196C32.8975 9.93073 32.6137 10.5984 32.115 11.0879C31.6164 11.5775 30.9437 11.8489 30.2449 11.8425C29.5461 11.8488 28.8735 11.5772 28.3749 11.0876C27.8763 10.5979 27.5928 9.93073 27.5865 9.23196Z" fill="white"/>
<path d="M31.2459 28.2429C31.0797 28.1701 30.939 28.0495 30.8416 27.8964C30.7443 27.7433 30.6948 27.5647 30.6994 27.3834V23.3164C30.6953 23.1354 30.745 22.9574 30.8423 22.8048C30.9396 22.6522 31.0801 22.532 31.2459 22.4594C32.7384 21.8359 33.5489 19.9464 32.2659 18.1594C32.2072 18.078 32.1352 18.0072 32.0529 17.9499C30.2329 16.6904 28.3084 17.4859 27.6734 18.9499C27.5961 19.1147 27.4722 19.2534 27.3171 19.3487C27.162 19.444 26.9824 19.4919 26.8004 19.4864H22.6344C22.4514 19.4856 22.2725 19.4319 22.1194 19.3316C21.9663 19.2313 21.8456 19.0888 21.7719 18.9214C21.5527 18.4439 21.2012 18.0394 20.759 17.7558C20.3167 17.4722 19.8024 17.3215 19.2771 17.3215C18.7518 17.3215 18.2375 17.4722 17.7953 17.7558C17.3531 18.0394 17.0015 18.4439 16.7824 18.9214C16.7086 19.0888 16.5879 19.2313 16.4348 19.3316C16.2817 19.4319 16.1029 19.4856 15.9199 19.4864H11.7699H11.7044C11.5247 19.4799 11.3505 19.4226 11.2019 19.3213C11.0534 19.22 10.9365 19.0788 10.8649 18.9139C10.5872 18.3049 10.0938 17.8204 9.47985 17.5539C9.31452 17.4869 9.17176 17.3741 9.06839 17.2288C8.96501 17.0834 8.90532 16.9115 8.89635 16.7334C8.89635 16.7119 8.89635 16.6904 8.89635 16.6689V12.6289C8.89635 12.6074 8.89635 12.5859 8.89635 12.5649C8.90467 12.3861 8.96406 12.2135 9.06747 12.0674C9.17089 11.9214 9.314 11.8081 9.47985 11.7409C10.0938 11.4744 10.5873 10.9899 10.8649 10.3809C10.9365 10.2159 11.0533 10.0746 11.2019 9.97332C11.3505 9.872 11.5247 9.81481 11.7044 9.80836H11.7699H15.9199C16.0999 9.80697 16.2765 9.85793 16.4281 9.95505C16.5797 10.0522 16.6998 10.1912 16.7739 10.3554C17.4139 11.8149 19.3374 12.6054 21.1504 11.3464C21.2319 11.2897 21.3032 11.2198 21.3614 11.1394C22.9289 8.96486 21.3814 6.62186 19.2764 6.62186C18.7506 6.61956 18.2353 6.76938 17.7927 7.05327C17.3501 7.33716 16.999 7.74299 16.7819 8.22186C16.7082 8.38943 16.5875 8.53204 16.4344 8.63241C16.2813 8.73277 16.1024 8.7866 15.9194 8.78736H11.7539C11.5718 8.79283 11.3921 8.7449 11.237 8.64947C11.0819 8.55405 10.9581 8.41531 10.8809 8.25036C10.2459 6.78486 8.32135 5.98936 6.50135 7.25036C6.41898 7.3076 6.34695 7.37845 6.28835 7.45986C5.00585 9.24636 5.81585 11.1359 7.30885 11.7599C7.47463 11.8325 7.61508 11.9527 7.71239 12.1053C7.80969 12.2579 7.85945 12.4359 7.85535 12.6169V16.6834C7.85945 16.8643 7.80969 17.0424 7.71239 17.1949C7.61508 17.3475 7.47463 17.4678 7.30885 17.5404C5.81635 18.1639 5.00585 20.0534 6.28885 21.8404C6.34739 21.9218 6.41943 21.9927 6.50185 22.0499C8.32186 23.3094 10.2464 22.5134 10.8814 21.0499C10.9586 20.885 11.0824 20.7463 11.2376 20.651C11.3927 20.5556 11.5724 20.5078 11.7544 20.5134H15.9204C16.1034 20.5141 16.2822 20.5678 16.4353 20.6681C16.5884 20.7684 16.7091 20.9109 16.7829 21.0784C17.002 21.5558 17.3536 21.9603 17.7958 22.2439C18.238 22.5275 18.7523 22.6783 19.2776 22.6783C19.8029 22.6783 20.3172 22.5275 20.7595 22.2439C21.2017 21.9603 21.5532 21.5558 21.7724 21.0784C21.8461 20.9109 21.9668 20.7684 22.1199 20.6681C22.273 20.5678 22.4519 20.5141 22.6349 20.5134H26.7849H26.8504C27.0298 20.5194 27.2038 20.5761 27.3523 20.677C27.5008 20.7779 27.6177 20.9188 27.6894 21.0834C27.9672 21.6924 28.4608 22.1769 29.0749 22.4434C29.2407 22.5106 29.3838 22.6239 29.4873 22.7699C29.5907 22.916 29.6501 23.0886 29.6584 23.2674C29.6584 23.2889 29.6584 23.3099 29.6584 23.3314V27.3699C29.6584 27.3914 29.6584 27.4129 29.6584 27.4339C29.6501 27.6126 29.5907 27.7853 29.4873 27.9313C29.3838 28.0773 29.2407 28.1907 29.0749 28.2579C28.4607 28.5243 27.9671 29.0088 27.6894 29.6179C27.6177 29.7828 27.5009 29.9241 27.3523 30.0254C27.2038 30.1267 27.0296 30.1839 26.8499 30.1904H22.6339C22.4538 30.1918 22.2773 30.1408 22.1256 30.0437C21.974 29.9466 21.8539 29.8075 21.7799 29.6434C21.1399 28.1839 19.2169 27.3934 17.4034 28.6519C17.3217 28.7084 17.2502 28.7784 17.1919 28.8589C15.6244 31.0334 17.1719 33.3764 19.2769 33.3764C19.8027 33.3787 20.3181 33.2289 20.7608 32.945C21.2035 32.6611 21.5546 32.2553 21.7719 31.7764C21.8456 31.6089 21.9663 31.4664 22.1194 31.3661C22.2725 31.2658 22.4514 31.2121 22.6344 31.2114H26.8004C26.9824 31.2059 27.1621 31.2538 27.3172 31.3493C27.4723 31.4447 27.5961 31.5834 27.6734 31.7484C28.3084 33.2134 30.2329 34.0094 32.0529 32.7484C32.1352 32.6913 32.2072 32.6206 32.2659 32.5394C33.5484 30.7529 32.7384 28.8634 31.2459 28.2394" fill="#33A437"/>
<path d="M45.8679 27.8286C45.8679 26.2826 46.3029 25.8876 47.8084 26.2826C49.4697 26.7113 51.1777 26.9323 52.8934 26.9406C55.5699 26.9406 56.5399 26.4801 56.5399 25.1646C56.5399 24.2106 56.0049 23.6841 53.8634 22.4671L49.5809 20.0006C47.3394 18.7176 46.2019 16.8756 46.2019 14.4741C46.2019 10.79 48.5439 8.94805 53.9969 8.94805C55.4083 8.92992 56.8155 9.1071 58.1784 9.47455C59.7844 9.90205 60.1524 10.2965 60.1524 11.777V12.106C60.1524 13.685 59.7524 14.0136 58.1784 13.5861C56.8185 13.2034 55.4091 13.0261 53.9969 13.06C51.7219 13.06 50.8189 13.4215 50.8189 14.6061C50.8189 15.3956 51.2189 15.8231 52.6589 16.6456L57.1089 19.2111C59.9194 20.8231 61.1589 22.3691 61.1589 25.1646C61.1589 29.0146 58.7169 31.0521 52.8284 31.0521C51.1244 31.076 49.4252 30.8658 47.7784 30.4276C46.2059 29.9996 45.8714 29.6381 45.8714 28.1581L45.8679 27.8286Z" fill="#33A437"/>
<path d="M101.846 37.3935L101.812 37.2245C101.439 35.7745 101.712 35.4015 103.099 35.0975C105.099 34.6585 106.349 33.4765 106.792 31.586C106.339 31.7016 105.87 31.7471 105.403 31.721C102.591 31.721 101.744 30.2355 100.965 26.994L98.4922 16.2905C98.1872 14.8045 98.4582 14.4335 99.9827 14.4335H100.728C102.253 14.4335 102.659 14.805 103.032 16.2905L105.268 26.4875C105.539 27.703 105.878 27.9055 106.86 27.9055C107.504 27.9055 107.842 27.602 108.114 26.4875L110.35 16.2905C110.723 14.8045 111.129 14.4335 112.654 14.4335H113.399C114.923 14.4335 115.194 14.805 114.889 16.2905L111.434 31.3155C110.316 36.313 107.741 38.406 104.116 38.9465C103.825 38.9949 103.531 39.0225 103.237 39.029C102.365 39.0285 102.085 38.634 101.846 37.3935ZM81.7627 23.8285V21.19C81.7627 16.24 84.4007 13.7685 89.6437 13.7685C94.5823 13.7685 97.0518 16.1434 97.0518 20.893C97.0518 21.3545 97.0177 21.7835 96.9837 22.1795C96.8147 23.6635 96.3747 23.9935 94.7837 23.9935H86.1921V24.488C86.1921 26.203 87.5112 26.995 90.6232 26.995C91.9993 26.975 93.3702 26.8202 94.7162 26.533C96.1707 26.236 96.5092 26.566 96.5092 28.1165V28.479C96.5092 29.929 96.2047 30.2605 94.7162 30.623C93.3646 30.9414 91.9779 31.0854 90.5897 31.0515C84.5367 31.0515 81.7646 28.875 81.7646 23.8285H81.7627ZM86.1937 20.0025V20.4975H92.8572V20.0025C92.8572 18.3205 91.7407 17.496 89.5072 17.496C87.3102 17.4955 86.1937 18.3205 86.1937 20.0025ZM78.3937 31.0525C76.8677 31.0525 76.2832 30.749 75.3437 29.5025L70.6357 23.293C69.7309 22.2345 69.2052 20.9042 69.1422 19.513C69.2082 18.1529 69.7349 16.8557 70.6357 15.8345L74.6942 10.637C75.6362 9.42199 76.2201 9.11849 77.7441 9.11849H79.1401C80.6661 9.11849 80.7957 9.42199 79.8547 10.637L74.8221 17.184C74.2774 17.8199 73.7988 18.5097 73.3937 19.2425C73.3562 19.3745 73.3344 19.5104 73.3287 19.6475C73.328 19.876 73.3957 20.0994 73.5232 20.289L74.8232 22.01L80.5046 29.502C81.4461 30.752 81.3161 31.052 79.7906 31.052L78.3937 31.0525ZM65.6992 31.0525C64.1732 31.0525 63.8161 30.614 63.8161 29.095V11.0735C63.8161 9.55501 64.1732 9.11599 65.6992 9.11599H66.2837C67.8097 9.11599 68.1672 9.55501 68.1672 11.0735V29.095C68.1672 30.614 67.8097 31.0525 66.2837 31.0525H65.6992Z" fill="#050505"/>
<path d="M110.293 12.2715C109.798 12.2715 109.682 12.1385 109.682 11.678V6.851C109.682 5.992 110.061 5.62352 110.945 5.62352H112.673C114.223 5.62352 115 6.37001 115 7.85301C115 9.33601 114.221 10.072 112.673 10.072H111.094V11.6775C111.094 12.138 110.977 12.271 110.482 12.271L110.293 12.2715ZM111.093 7.20952V8.79448H112.672C113.336 8.79448 113.589 8.498 113.589 7.8535C113.589 7.209 113.336 6.90349 112.672 6.90349H111.408C111.366 6.89696 111.323 6.90032 111.283 6.91325C111.242 6.92618 111.205 6.94835 111.175 6.97801C111.144 7.00768 111.121 7.04404 111.107 7.08421C111.093 7.12438 111.088 7.16727 111.094 7.20952H111.093ZM107.537 12.2715C107.349 12.2924 107.16 12.2557 106.995 12.1664C106.829 12.077 106.694 11.9393 106.609 11.7715L105.352 9.87151H104.415V11.6815C104.415 12.142 104.301 12.275 103.815 12.275H103.629C103.145 12.275 103.029 12.142 103.029 11.6815V6.85448C103.029 5.99548 103.4 5.627 104.266 5.627H105.955C107.469 5.627 108.232 6.3325 108.232 7.7545C108.232 8.859 107.768 9.53397 106.841 9.76897L108.191 11.7835C108.448 12.162 108.408 12.2745 107.923 12.2745L107.537 12.2715ZM104.415 7.20952V8.59001H105.96C106.56 8.59001 106.856 8.31401 106.856 7.75151C106.856 7.17901 106.609 6.90147 105.96 6.90147H104.724C104.682 6.89536 104.639 6.89915 104.599 6.91246C104.559 6.92577 104.522 6.94823 104.492 6.97813C104.463 7.00804 104.44 7.04454 104.427 7.0847C104.413 7.12486 104.409 7.16762 104.415 7.20952ZM97.7594 12.2715C96.7989 12.2715 96.3875 11.9035 96.3875 11.0445V6.85149C96.3875 5.99248 96.7989 5.62401 97.7594 5.62401H101.042C101.557 5.62401 101.705 5.75701 101.705 6.21751V6.30949C101.705 6.78999 101.556 6.90251 101.042 6.90251H98.263C98.0343 6.90251 97.9198 7.00485 97.9195 7.20952V8.23198H100.585C101.099 8.23198 101.248 8.34449 101.248 8.82549V8.91753C101.248 9.37803 101.098 9.51048 100.585 9.51048H97.9195V10.6865C97.9195 10.8912 98.034 10.9935 98.263 10.9935H101.042C101.557 10.9935 101.705 11.106 101.705 11.5865V11.6785C101.705 12.139 101.556 12.272 101.042 12.272L97.7594 12.2715Z" fill="#33A437"/>
</svg>
