<svg width="48" height="48" viewBox="0 0 48 48" fill="none" xmlns="http://www.w3.org/2000/svg">
<g clip-path="url(#clip0_1_492)">
<path fill-rule="evenodd" clip-rule="evenodd" d="M13.9858 13.9623L4 23.8477C5.99734 25.825 8.27899 27.4914 10.7666 28.7951C11.4542 30.6007 12.532 32.294 14 33.7472C19.5229 39.2145 28.4772 39.2145 34 33.7472C35.468 32.294 36.5458 30.6007 37.2334 28.795C39.721 27.4914 42.0027 25.825 44 23.8477L34.0223 13.9703C34.0149 13.9629 34.0075 13.9555 34 13.9482C28.4772 8.48082 19.5229 8.48082 14 13.9482C13.9953 13.9529 13.9905 13.9576 13.9858 13.9623ZM33.0445 30.5786C30.1345 31.5508 27.0797 32.0487 24 32.0487C20.9203 32.0487 17.8656 31.5508 14.9556 30.5786C15.2709 30.9927 15.619 31.3901 16 31.7673C20.4183 36.1412 27.5817 36.1412 32 31.7673C32.381 31.3901 32.7292 30.9927 33.0445 30.5786ZM16.2051 15.7301C16.9554 16.2208 17.7532 16.6407 18.588 16.983C20.3038 17.6866 22.1428 18.0487 24 18.0487C25.8572 18.0487 27.6962 17.6866 29.412 16.983C30.2468 16.6407 31.0446 16.2208 31.795 15.73C27.4318 11.6202 20.5682 11.6202 16.2051 15.7301Z" fill="#050505"/>
</g>
<defs>
<clipPath id="clip0_1_492">
<rect width="40" height="28" fill="white" transform="translate(4 9.84766)"/>
</clipPath>
</defs>
</svg>
