<svg width="48" height="48" viewBox="0 0 48 48" fill="none" xmlns="http://www.w3.org/2000/svg">
<g clip-path="url(#clip0_1_515)">
<path d="M42.4375 11.6914C42.4375 12.1574 42.8199 12.5352 43.2917 12.5352H44.1458C44.6176 12.5352 45 12.1574 45 11.6914C45 11.2254 44.6176 10.8477 44.1458 10.8477H43.2917C42.8199 10.8477 42.4375 11.2254 42.4375 11.6914Z" fill="#050505"/>
<path d="M17.6667 37.8477H21.8161L20.6081 36.6544C20.2877 36.338 19.8532 36.1602 19.4001 36.1602H17.6667C11.0623 36.1602 5.70833 30.8715 5.70833 24.3477C5.70833 17.8238 11.0623 12.5352 17.6667 12.5352H31.3333C37.9378 12.5352 43.2917 17.8238 43.2917 24.3477C43.2917 30.8715 37.9378 36.1602 31.3333 36.1602H26.2209C25.5413 36.1602 24.8895 35.8935 24.4089 35.4188L22.9937 34.0208C22.1928 33.2296 21.1064 32.7852 19.9737 32.7852H17.6667C12.9492 32.7852 9.125 29.0076 9.125 24.3477C9.125 19.6877 12.9492 15.9102 17.6667 15.9102H31.3333C36.0508 15.9102 39.875 19.6877 39.875 24.3477C39.875 29.0076 36.0508 32.7852 31.3333 32.7852H28.0507C27.371 32.7852 26.7193 32.5185 26.2387 32.0438L24.8234 30.6458C24.0225 29.8546 22.9362 29.4102 21.8035 29.4102H17.6667C14.8362 29.4102 12.5417 27.1436 12.5417 24.3477C12.5417 21.5517 14.8362 19.2852 17.6667 19.2852H31.3333C34.1638 19.2852 36.4583 21.5517 36.4583 24.3477C36.4583 27.1095 34.2194 29.3548 31.4367 29.4091L31.4361 29.4102H30.1861C29.5064 29.4102 28.8547 29.1435 28.3741 28.6688L26.9588 27.2708C26.3017 26.6216 25.4524 26.2059 24.5429 26.0775L24.5 26.0352H17.6667C16.7232 26.0352 15.9583 25.2796 15.9583 24.3477C15.9583 23.4157 16.7232 22.6602 17.6667 22.6602H31.3333C32.2768 22.6602 33.0417 23.4157 33.0417 24.3477C33.0417 25.2796 32.2768 26.0352 31.3333 26.0352H27.9167L29.1247 27.2284C29.445 27.5449 29.8795 27.7227 30.3326 27.7227H31.3333C33.2203 27.7227 34.75 26.2116 34.75 24.3477C34.75 22.4837 33.2203 20.9727 31.3333 20.9727H17.6667C15.7797 20.9727 14.25 22.4837 14.25 24.3477C14.25 26.2116 15.7797 27.7227 17.6667 27.7227H23.9389C24.6186 27.7227 25.2703 27.9893 25.7509 28.464L27.1662 29.862C27.9671 30.6532 29.0534 31.0977 30.1861 31.0977H31.7604V31.0847C35.3354 30.8669 38.1667 27.9339 38.1667 24.3477C38.1667 20.6198 35.1072 17.5977 31.3333 17.5977H17.6667C13.8928 17.5977 10.8333 20.6198 10.8333 24.3477C10.8333 28.0756 13.8928 31.0977 17.6667 31.0977H21.8035C22.4831 31.0977 23.1349 31.3643 23.6155 31.839L25.0307 33.237C25.8317 34.0282 26.918 34.4727 28.0507 34.4727H31.3333C36.9943 34.4727 41.5833 29.9396 41.5833 24.3477C41.5833 18.7558 36.9943 14.2227 31.3333 14.2227H17.6667C12.0057 14.2227 7.41667 18.7558 7.41667 24.3477C7.41667 29.9396 12.0057 34.4727 17.6667 34.4727H19.9737C20.6534 34.4727 21.3051 34.7393 21.7857 35.214L23.201 36.612C24.0019 37.4032 25.0882 37.8477 26.2209 37.8477H31.3333C38.8812 37.8477 45 31.8035 45 24.3477C45 16.8918 38.8812 10.8477 31.3333 10.8477L17.6667 10.8477C10.1188 10.8477 4 16.8918 4 24.3477C4 31.8035 10.1188 37.8477 17.6667 37.8477Z" fill="#050505"/>
</g>
<defs>
<clipPath id="clip0_1_515">
<rect width="41" height="27" fill="white" transform="translate(4 10.8477)"/>
</clipPath>
</defs>
</svg>
