<svg width="55" height="48" viewBox="0 0 55 48" fill="none" xmlns="http://www.w3.org/2000/svg">
<g clip-path="url(#clip0_1_523)">
<path d="M54.9957 19.5173C55.0015 19.4756 55.0015 19.4335 54.9957 19.3918C55.0011 19.3578 55.0011 19.3231 54.9957 19.2891L54.5883 16.3564C54.5295 16.0056 54.3723 15.6776 54.1344 15.4093L54.0645 15.3294L53.9365 15.2039L46.8829 9.24733L47.0808 9.44133C46.9189 9.25145 46.7157 9.09957 46.4861 8.99688C46.2565 8.89419 46.0062 8.84329 45.7539 8.84795H43.6122C43.2639 8.84119 42.9236 8.94974 42.6461 9.15606C42.3547 8.95098 42.0038 8.84299 41.6451 8.84795H39.5034C39.2225 8.84349 38.9454 8.91183 38.7001 9.04608C38.4549 9.18034 38.2501 9.37574 38.1067 9.61249C37.8855 9.95064 37.8023 10.3581 37.8738 10.7536L38.1416 12.6022C37.9642 12.5036 37.7635 12.4525 37.5596 12.4539H27.1887C26.8166 12.4561 26.4531 12.5631 26.1411 12.7619C25.8395 12.9471 25.5973 13.2121 25.4428 13.5265L24.6396 12.8532C24.3235 12.5665 23.9063 12.4111 23.4757 12.4196H7.20353C6.83012 12.4263 6.46501 12.5286 6.14436 12.7163C5.70569 12.968 5.38421 13.3773 5.24809 13.8574L0.0801167 30.8029C-0.0164452 31.0821 -0.0259442 31.3832 0.0528362 31.6678C0.131617 31.9522 0.295109 32.2074 0.522426 32.4004C0.581658 32.4496 0.643851 32.4954 0.708664 32.5373C0.708664 32.5373 0.603891 32.4688 0.545692 32.4118L7.59931 38.3798C7.89769 38.6491 8.28781 38.7997 8.69336 38.802H25.0936C25.4681 38.7925 25.8335 38.6862 26.1528 38.4939C26.3334 38.3971 26.495 38.2696 26.63 38.1173L26.6882 38.0374L26.7813 37.9234L26.8512 37.7978L27.6194 38.4483C27.9135 38.7069 28.2951 38.8492 28.6902 38.8477H45.1253C45.4994 38.8354 45.8641 38.7294 46.1845 38.5396C46.361 38.4369 46.5217 38.3101 46.6618 38.163L46.7199 38.0831L46.813 37.969C46.8625 37.8968 46.9055 37.8205 46.941 37.7407C46.9791 37.6716 47.0103 37.599 47.0342 37.524L51.7482 22.0506V21.9136C51.754 21.8605 51.754 21.807 51.7482 21.7539V21.6512C51.7539 21.6172 51.7539 21.5825 51.7482 21.5485C51.7535 21.4763 51.7535 21.4039 51.7482 21.3316H53.2614C53.393 21.3435 53.5255 21.3435 53.6571 21.3316H53.7619C53.8471 21.3067 53.9291 21.2722 54.0063 21.229H54.1227L54.3322 21.0692L54.4253 21.0007L54.5883 20.7953V20.7269L54.7047 20.5329C54.6982 20.4952 54.6982 20.4565 54.7047 20.4188C54.6985 20.4003 54.6985 20.3803 54.7047 20.3617C54.7294 20.2948 54.7489 20.2261 54.7629 20.1563C54.7575 20.1338 54.7575 20.1103 54.7629 20.0878C54.7572 20.0539 54.7572 20.0191 54.7629 19.9852C54.7629 19.9852 54.9957 19.5401 54.9957 19.5173Z" fill="#050505"/>
<path d="M23.9532 13.7196C24.015 13.7744 24.0581 13.8464 24.0768 13.926C24.0956 14.0055 24.089 14.0888 24.058 14.1646L18.9017 31.0986C18.8367 31.2835 18.7039 31.4381 18.5292 31.5323C18.387 31.6255 18.2225 31.6806 18.0519 31.692H1.66341C1.52345 31.6854 1.39085 31.6286 1.29094 31.5323C1.2315 31.4784 1.18978 31.4083 1.17112 31.3311C1.15246 31.2539 1.15771 31.173 1.18618 31.0986L6.35416 14.1646C6.4137 13.9774 6.54237 13.8187 6.71498 13.7196C6.85949 13.6331 7.02324 13.5821 7.19221 13.5712H23.5807C23.7196 13.5725 23.8527 13.6256 23.9532 13.7196ZM15.3981 27.6867L18.4826 17.5765H9.84606L6.77317 27.6867H15.3981ZM39.5968 13.8907C39.6527 13.9544 39.7226 14.005 39.8012 14.0386C39.8798 14.0721 39.965 14.0879 40.0508 14.0847H42.1808C42.2619 14.0855 42.3418 14.066 42.4132 14.0281C42.4844 13.9901 42.5446 13.935 42.5882 13.8679C42.626 13.8155 42.6527 13.7562 42.6667 13.6934C42.6807 13.6307 42.6817 13.5659 42.6696 13.5028L42.2506 10.4903C42.2107 10.3508 42.1391 10.2221 42.0411 10.1137C41.9852 10.05 41.9153 9.99946 41.8367 9.96587C41.7581 9.93229 41.6728 9.91651 41.5872 9.9197H39.4571C39.376 9.91892 39.296 9.93842 39.2248 9.97636C39.1535 10.0143 39.0932 10.0694 39.0498 10.1365C38.9683 10.2963 38.9333 10.399 38.9683 10.4903L39.3989 13.5028C39.421 13.6495 39.4904 13.7854 39.5968 13.8907ZM46.3594 10.4674C46.3195 10.328 46.2478 10.1993 46.1499 10.0909C46.0963 10.0274 46.0285 9.97688 45.9518 9.94324C45.8751 9.9096 45.7915 9.89373 45.7076 9.89687H43.5659C43.4861 9.89465 43.4072 9.91362 43.3375 9.95179C43.2679 9.98996 43.2101 10.0459 43.1702 10.1137C43.0927 10.2149 43.0592 10.3421 43.0771 10.4674L43.5077 13.4799C43.5347 13.6251 43.6033 13.7597 43.7056 13.8679C43.7625 13.9304 43.8325 13.9801 43.9109 14.0135C43.9893 14.047 44.074 14.0635 44.1595 14.0619H46.3012C46.3808 14.0629 46.4592 14.0435 46.5286 14.0054C46.5981 13.9673 46.6562 13.9121 46.697 13.8451C46.7375 13.7941 46.7657 13.7347 46.7799 13.6716C46.794 13.6084 46.7935 13.5429 46.7784 13.4799L46.3594 10.4674ZM37.7228 15.0319L37.5133 13.5484H27.189C27.0269 13.5572 26.8701 13.6084 26.735 13.6968C26.6493 13.7426 26.5747 13.8061 26.5164 13.8829C26.4582 13.9598 26.4176 14.0481 26.3975 14.1418L25.5362 16.9717C25.5018 17.0424 25.49 17.1218 25.5025 17.1992C25.515 17.2766 25.5511 17.3484 25.606 17.4054C25.7042 17.4958 25.8323 17.5485 25.9669 17.5537H38.5143L35.4298 27.6639H22.9173C22.7559 27.6675 22.5988 27.7149 22.4634 27.8008C22.2987 27.9033 22.1785 28.0618 22.1258 28.2459L21.2528 31.0758C21.2243 31.1484 21.2168 31.2273 21.2312 31.3038C21.2456 31.3804 21.2812 31.4515 21.3343 31.5094C21.4294 31.6059 21.5585 31.6631 21.6951 31.6692H38.1302C38.3002 31.6548 38.464 31.6 38.6074 31.5094C38.7793 31.4148 38.9082 31.2599 38.9683 31.0758L43.6939 15.6024H38.3746C38.2902 15.604 38.2064 15.5887 38.1284 15.5573C38.0503 15.5259 37.9796 15.4791 37.9207 15.4198C37.8245 15.3163 37.7564 15.1908 37.7228 15.0547V15.0319Z" fill="white"/>
</g>
<defs>
<clipPath id="clip0_1_523">
<rect width="55" height="30" fill="white" transform="translate(0 8.84766)"/>
</clipPath>
</defs>
</svg>
