<svg width="27" height="27" viewBox="0 0 27 27" fill="none" xmlns="http://www.w3.org/2000/svg">
<g clip-path="url(#clip0_1_827)">
<path d="M4.5 3.875H8.4375C8.78011 3.875 9.0625 4.15739 9.0625 4.5C9.0625 5.7775 9.24142 7.01138 9.57617 8.17773L9.72852 8.67285C9.79585 8.89494 9.74509 9.13477 9.56934 9.31055L7.09375 11.7852L6.83691 12.042L7.00195 12.3652C8.67024 15.6439 11.3568 18.3184 14.6328 19.9971L14.957 20.1631L15.2148 19.9062L17.6895 17.4307C17.8374 17.2827 18.0477 17.2227 18.2402 17.2588L18.3213 17.2803L18.3271 17.2822C19.6376 17.7151 21.0517 17.9492 22.5 17.9492C22.8426 17.9492 23.125 18.2316 23.125 18.5742V22.5C23.125 22.8426 22.8426 23.125 22.5 23.125C12.2124 23.125 3.875 14.7876 3.875 4.5C3.875 4.15739 4.15739 3.875 4.5 3.875Z" fill="#050505" stroke="#050505"/>
</g>
<defs>
<clipPath id="clip0_1_827">
<rect width="27" height="27" fill="white"/>
</clipPath>
</defs>
</svg>
