<svg width="20" height="20" viewBox="0 0 20 20" fill="none" xmlns="http://www.w3.org/2000/svg">
<path d="M18.0284 3.35928C17.3492 3.68011 16.1934 4.28178 15.6125 4.39678C15.59 4.40261 15.5717 4.41011 15.55 4.41594C14.8725 3.74761 13.9442 3.33344 12.9167 3.33344C10.8459 3.33344 9.16671 5.01261 9.16671 7.08344C9.16671 7.19261 9.15755 7.39344 9.16671 7.50011C6.48505 7.50011 4.52671 6.10094 3.06088 4.30261C2.86505 4.06094 2.65671 4.18678 2.61338 4.35844C2.51588 4.74678 2.48255 5.39594 2.48255 5.85928C2.48255 7.02678 3.39505 8.17344 4.81588 8.88428C4.55421 8.95178 4.26588 9.00011 3.96588 9.00011C3.61255 9.00011 3.20588 8.90761 2.85005 8.72094C2.71838 8.65178 2.43421 8.67094 2.51838 9.00761C2.85588 10.3568 4.39588 11.3043 5.77171 11.5801C5.45921 11.7643 4.79255 11.7268 4.48588 11.7268C4.37255 11.7268 3.97838 11.7001 3.72338 11.6684C3.49088 11.6401 3.13338 11.7001 3.43255 12.1534C4.07505 13.1259 5.52838 13.7368 6.77921 13.7601C5.62755 14.6634 3.74421 14.9934 1.94005 14.9934C1.57505 14.9851 1.59338 15.4009 1.88755 15.5551C3.21838 16.2534 5.39838 16.6668 6.95588 16.6668C13.1475 16.6668 16.6667 11.9476 16.6667 7.49928C16.6667 7.42761 16.665 7.27761 16.6625 7.12678C16.6625 7.11178 16.6667 7.09761 16.6667 7.08261C16.6667 7.06011 16.66 7.03844 16.66 7.01594C16.6575 6.90261 16.655 6.79678 16.6525 6.74178C17.1434 6.38761 17.895 5.77261 18.275 5.30178C18.4042 5.14178 18.3 4.94761 18.1242 5.00844C17.6717 5.16594 16.8892 5.47094 16.3992 5.52928C17.38 4.88011 17.865 4.31511 18.2817 3.68761C18.4242 3.47344 18.2459 3.25594 18.0284 3.35928Z" fill="#0A142F"/>
</svg>
