<svg width="27" height="27" viewBox="0 0 27 27" fill="none" xmlns="http://www.w3.org/2000/svg">
<path d="M13.4998 3.19971C19.1873 3.19971 23.7996 7.81048 23.7996 13.4985C23.7995 19.1867 19.187 23.8003 13.4998 23.8003C11.4927 23.8003 9.62603 23.2162 8.04083 22.2212L7.82208 22.0835L7.5838 22.1821L3.75372 23.769C3.68173 23.7987 3.60279 23.8078 3.52423 23.7925L3.44611 23.769C3.24218 23.6827 3.14697 23.4498 3.23029 23.2476L4.8172 19.4165L4.91583 19.1782L4.77814 18.9595C3.7826 17.3744 3.20005 15.506 3.20001 13.4985C3.20001 7.81052 7.81167 3.19981 13.4998 3.19971ZM13.4998 3.99951C8.26149 3.99962 3.99982 8.26061 3.99982 13.4985C3.99985 15.2747 4.50305 17.0152 5.45587 18.5317V18.5327L5.81232 19.1021L4.8006 21.5464L4.33868 22.6616L5.45392 22.1997L7.8963 21.187L8.46564 21.5444C9.98208 22.4951 11.7233 23.0005 13.4998 23.0005C18.7384 23.0005 22.9997 18.7368 22.9998 13.4985C22.9998 8.26026 18.7382 3.99951 13.4998 3.99951Z" fill="#4EAA97" stroke="#050505"/>
<path d="M12.2336 11.512L11.5558 12.1907L11.2023 12.5442L11.5558 12.8977L14.0998 15.4426L14.4533 15.7971L14.8068 15.4436L15.4855 14.7639L17.7844 16.1438L16.965 16.9622L16.9641 16.9631C16.4899 17.4384 15.7359 17.4692 15.2238 17.052L15.1252 16.9631L15.1105 16.9485C15.1009 16.9389 15.0871 16.9241 15.0685 16.9055C15.0313 16.8682 14.976 16.814 14.9064 16.7444C14.7673 16.6052 14.5688 16.4058 14.3303 16.1672C13.8531 15.69 13.2164 15.0545 12.5803 14.4182C11.9694 13.8073 11.3588 13.196 10.8889 12.7258H10.8898L10.0363 11.8723C9.56024 11.3962 9.53076 10.6437 9.94745 10.1331L10.0363 10.0344L10.8547 9.21509L12.2336 11.512Z" fill="#050505" stroke="#050505"/>
</svg>
